<svg xmlns="http://www.w3.org/2000/svg" width="512" height="512" viewBox="0 0 512 512" fill="none">
  <defs>
    <linearGradient id="bg" x1="32" y1="32" x2="480" y2="480" gradientUnits="userSpaceOnUse">
      <stop stop-color="#184A8C"/>
      <stop offset="1" stop-color="#118AB2"/>
    </linearGradient>
  </defs>
  <rect x="32" y="32" width="448" height="448" rx="96" fill="url(#bg)"/>
  <ellipse cx="256" cy="382" rx="138" ry="26" fill="#000" opacity="0.18"/>
  <rect x="96" y="112" width="320" height="188" rx="34" fill="#FAFCFF"/>
  <rect x="124" y="138" width="132" height="18" rx="9" fill="#233756"/>
  <rect x="124" y="170" width="168" height="12" rx="6" fill="#91A2BA"/>
  <rect x="124" y="194" width="140" height="12" rx="6" fill="#91A2BA"/>
  <rect x="124" y="218" width="116" height="12" rx="6" fill="#91A2BA"/>
  <rect x="308" y="142" width="76" height="54" rx="16" fill="#FFC43D"/>
  <rect x="308" y="210" width="76" height="54" rx="16" fill="#4CC9F0"/>
  <rect x="230" y="300" width="52" height="34" rx="8" fill="#112A48"/>
  <rect x="176" y="330" width="160" height="22" rx="11" fill="#E1E8EF"/>
  <circle cx="224" cy="366" r="30" fill="#FFD9AD"/>
  <rect x="156" y="384" width="136" height="70" rx="30" fill="#F6A623"/>
  <path d="M206 394L224 420L242 394L230 434Z" fill="white"/>
  <path d="M188 352L224 334L260 352L224 370L188 352Z" fill="#1D3557"/>
  <rect x="218" y="352" width="12" height="14" fill="#1D3557"/>
  <path d="M260 352L278 372" stroke="#1D3557" stroke-width="4" stroke-linecap="round"/>
  <circle cx="279" cy="375" r="5" fill="#1D3557"/>
  <rect x="300" y="356" width="88" height="88" rx="28" fill="#EF476F"/>
  <circle cx="344" cy="398" r="24" fill="#FFF5F7"/>
  <circle cx="344" cy="396" r="10" fill="#EF476F"/>
  <rect x="328" y="406" width="32" height="16" rx="8" fill="#EF476F"/>
</svg>
